# xmcd CD database file
#
# Track frame offsets:
#	150
#	21320
#	51753
#	70171
#	90860
#	103204
#	117435
#	141165
#	164014
#	184766
#	204954
#	227054
#
# Disc length: 3316 seconds
#
# Revision: 0
# Processed by: cddbd v1.5.2PL0 Copyright (c) Steve Scherf et al.
# Submitted via: CDex 1.51
#
DISCID=a40cf20c
DTITLE=ROBERT-O - RHYTHMS OF PASSION
DYEAR=2006
DGENRE=Jazz
TTITLE0=SI SENOR
TTITLE1=CABALLO VIEJO
TTITLE2=AMOR DE MIS AMORES
TTITLE3=CON LOS ANOS QUE ME QUEDAN
TTITLE4=SI UNA VEZ
TTITLE5=COMO LA FLOR
TTITLE6=AYER
TTITLE7=SOMOS NOVIOS
TTITLE8=PIEL MORENA
TTITLE9=MI TIERRA
TTITLE10=LA VIDA ES UN CARNAVAL
TTITLE11=MENTIROSA
EXTD=YEAR: 2006
EXTT0=
EXTT1=
EXTT2=
EXTT3=
EXTT4=
EXTT5=
EXTT6=
EXTT7=
EXTT8=
EXTT9=
EXTT10=
EXTT11=
PLAYORDER=
